<svg xmlns="http://www.w3.org/2000/svg" width="1280" height="720" viewBox="0 0 1280 720">
  <defs>
    <linearGradient id="bg" x1="0" y1="0" x2="0" y2="1">
      <stop offset="0%" stop-color="#fef3c7"/>
      <stop offset="100%" stop-color="#fde68a"/>
    </linearGradient>
    <linearGradient id="cakeTop" x1="0" y1="0" x2="0" y2="1">
      <stop offset="0%" stop-color="#fecdd3"/>
      <stop offset="100%" stop-color="#fda4af"/>
    </linearGradient>
    <linearGradient id="cakeBody" x1="0" y1="0" x2="0" y2="1">
      <stop offset="0%" stop-color="#fca5a5"/>
      <stop offset="100%" stop-color="#ef4444"/>
    </linearGradient>
  </defs>

  <rect width="1280" height="720" fill="url(#bg)"/>

  <ellipse cx="640" cy="600" rx="430" ry="56" fill="#9ca3af" opacity="0.35"/>

  <ellipse cx="640" cy="488" rx="310" ry="64" fill="#fbcfe8"/>
  <rect x="330" y="488" width="620" height="150" rx="24" fill="url(#cakeBody)"/>
  <ellipse cx="640" cy="488" rx="310" ry="64" fill="url(#cakeTop)"/>

  <path d="M380 518 C420 548, 460 490, 500 518 C540 548, 580 490, 620 518 C660 548, 700 490, 740 518 C780 548, 820 490, 860 518 C890 538, 910 530, 930 518 L930 548 L380 548 Z" fill="#ffffff" opacity="0.92"/>

  <g>
    <rect x="470" y="402" width="20" height="78" rx="5" fill="#e5e7eb"/>
    <rect x="534" y="395" width="20" height="85" rx="5" fill="#dbeafe"/>
    <rect x="598" y="400" width="20" height="80" rx="5" fill="#fee2e2"/>
    <rect x="662" y="392" width="20" height="88" rx="5" fill="#dcfce7"/>
    <rect x="726" y="398" width="20" height="82" rx="5" fill="#fef9c3"/>
    <rect x="790" y="404" width="20" height="76" rx="5" fill="#ede9fe"/>
  </g>

  <g>
    <ellipse cx="480" cy="390" rx="10" ry="16" fill="#f59e0b"/>
    <ellipse cx="544" cy="382" rx="10" ry="16" fill="#f59e0b"/>
    <ellipse cx="608" cy="388" rx="10" ry="16" fill="#f59e0b"/>
    <ellipse cx="672" cy="380" rx="10" ry="16" fill="#f59e0b"/>
    <ellipse cx="736" cy="386" rx="10" ry="16" fill="#f59e0b"/>
    <ellipse cx="800" cy="392" rx="10" ry="16" fill="#f59e0b"/>
    <ellipse cx="480" cy="393" rx="5" ry="8" fill="#fde68a"/>
    <ellipse cx="544" cy="385" rx="5" ry="8" fill="#fde68a"/>
    <ellipse cx="608" cy="391" rx="5" ry="8" fill="#fde68a"/>
    <ellipse cx="672" cy="383" rx="5" ry="8" fill="#fde68a"/>
    <ellipse cx="736" cy="389" rx="5" ry="8" fill="#fde68a"/>
    <ellipse cx="800" cy="395" rx="5" ry="8" fill="#fde68a"/>
  </g>

  <g opacity="0.8">
    <circle cx="250" cy="180" r="10" fill="#60a5fa"/>
    <circle cx="320" cy="130" r="8" fill="#f472b6"/>
    <circle cx="980" cy="170" r="11" fill="#34d399"/>
    <circle cx="1060" cy="220" r="7" fill="#f97316"/>
    <circle cx="210" cy="250" r="7" fill="#22d3ee"/>
    <circle cx="1110" cy="280" r="8" fill="#a78bfa"/>
  </g>
</svg>
